# xmcd
#
# Track frame offsets:
#	150
#	19514
#	38193
#	55305
#	75930
#	92207
#	111610
#	125835
#	143358
#	158669
#	178033
#	196712
#	213824
#	234449
#	250726
#	270129
#	284354
#	301877
#
# Disc length: 4229 seconds
#
# Revision: 1
# Processed by: cddbd v1.5.1PL0 Copyright (c) Steve Scherf et al.
# Submitted via: audiograbber 1.83.01
#
DISCID=e5108312
DTITLE=Various Artist - PHMN - 0404-c
DYEAR=2004
DGENRE=
TTITLE0=Rascal Flatts - Mayberry
TTITLE1=George Strait - Desperately
TTITLE2=Diamond Rio - We All Fall Down
TTITLE3=John Micheal Montgomery - Letters From Home
TTITLE4=Kenny Chesney/ Uncle Kracker - When The Sun Goes Down
TTITLE5=Sharrie Austin - Driving Into The Sun
TTITLE6=Amy Dalley - Men Don't Change
TTITLE7=Reba McEntire - Somebody
TTITLE8=David Lee Murphy - Loco
TTITLE9=Rascla Flatts - Mayberry
TTITLE10=George Strait - Desperately (vocal)
TTITLE11=Diamond Rio - We All Fall Dowm (vocal)
TTITLE12=John Micheal Montgomery - Letters From Home (vocal)
TTITLE13=Kenny Chesney/ Uncle Kracker - When The Sun Goes Down (vocal)
TTITLE14=Sherrie Austin - Driving Into The Sun (vocal)
TTITLE15=Amy Dalley - Men Don't Change (voacl)
TTITLE16=Reba McEntire - Somebody (vocal)
TTITLE17=David Lee Murphy - Loco (vocal)
EXTD=
EXTT0=
EXTT1=
EXTT2=
EXTT3=
EXTT4=
EXTT5=
EXTT6=
EXTT7=
EXTT8=
EXTT9=
EXTT10=
EXTT11=
EXTT12=
EXTT13=
EXTT14=
EXTT15=
EXTT16=
EXTT17=
PLAYORDER=
